<?xml version="1.0" encoding="utf-8"?>
<!-- Generator: Adobe Illustrator 16.0.0, SVG Export Plug-In . SVG Version: 6.00 Build 0)  -->
<!DOCTYPE svg PUBLIC "-//W3C//DTD SVG 1.1//EN" "http://www.w3.org/Graphics/SVG/1.1/DTD/svg11.dtd">
<svg version="1.1" xmlns="http://www.w3.org/2000/svg" xmlns:xlink="http://www.w3.org/1999/xlink" x="0px" y="0px"
	 width="464.667px" height="127.003px" viewBox="0 0 464.667 127.003" enable-background="new 0 0 464.667 127.003"
	 xml:space="preserve">
<g id="Layer_1" display="none">
	<text transform="matrix(1 0 0 1 -1.9341 -200.0645)" display="inline"><tspan x="0" y="0" fill="#154475" font-family="'Mont-HeavyDEMO'" font-size="72" letter-spacing="-2">BARLOW</tspan><tspan x="307.724" y="0" fill="#154475" font-family="'Mont-HeavyDEMO'" font-size="72" letter-spacing="-1"> </tspan><tspan x="321.547" y="0" fill="#154475" font-family="'Mont-ExtraLightDEMO'" font-size="72" letter-spacing="-1">L</tspan><tspan x="356.034" y="0" fill="#154475" font-family="'Mont-ExtraLightDEMO'" font-size="72" letter-spacing="-10">AW</tspan></text>
	<line fill="none" stroke="#144574" stroke-width="1.75" stroke-miterlimit="10" x1="4" y1="-176.667" x2="464" y2="-176.667"/>
	<line fill="none" stroke="#144574" stroke-width="1.75" stroke-miterlimit="10" x1="4" y1="-271.333" x2="464" y2="-271.333"/>
	<text transform="matrix(1 0 0 1 174.4194 -154.001)" fill="#144574" font-family="'Mont-ExtraLightDEMO'" font-size="17">Pasadena, CA</text>
</g>
<g id="Layer_2">
	<rect x="-74.333" y="-72.401" display="none" fill="#144574" width="614.576" height="274.486"/>
	<text transform="matrix(1 0 0 1 -2.7671 74.1025)"><tspan x="0" y="0" fill="#FFFFFF" font-family="'Mont-HeavyDEMO'" font-size="72" letter-spacing="-2">BARLOW</tspan><tspan x="307.723" y="0" fill="#FFFFFF" font-family="'Mont-HeavyDEMO'" font-size="72" letter-spacing="-1"> </tspan><tspan x="321.547" y="0" fill="#FFFFFF" font-family="'Mont-ExtraLightDEMO'" font-size="72" letter-spacing="-1">L</tspan><tspan x="356.035" y="0" fill="#FFFFFF" font-family="'Mont-ExtraLightDEMO'" font-size="72" letter-spacing="-10">AW</tspan></text>
	<line fill="none" stroke="#FFFFFF" stroke-width="1.75" stroke-miterlimit="10" x1="3.167" y1="97.5" x2="463.167" y2="97.5"/>
	<line fill="none" stroke="#FFFFFF" stroke-width="1.75" stroke-miterlimit="10" x1="3.167" y1="2.833" x2="463.167" y2="2.833"/>
	<text transform="matrix(1 0 0 1 173.5864 120.166)" fill="#FFFFFF" font-family="'Mont-ExtraLightDEMO'" font-size="17">Pasadena, CA</text>
</g>
<g id="Layer_3" display="none">
	<text transform="matrix(1 0 0 1 -2.7671 348.9248)" display="inline"><tspan x="0" y="0" fill="#154475" font-family="'Mont-HeavyDEMO'" font-size="72" letter-spacing="-2">BARLOW</tspan><tspan x="307.723" y="0" fill="#154475" font-family="'Mont-HeavyDEMO'" font-size="72" letter-spacing="-1"> </tspan><tspan x="321.547" y="0" fill="#154475" font-family="'Mont-ExtraLightDEMO'" font-size="72" letter-spacing="-1">L</tspan><tspan x="356.035" y="0" fill="#154475" font-family="'Mont-ExtraLightDEMO'" font-size="72" letter-spacing="-10">AW</tspan></text>
</g>
</svg>
